<svg viewBox="0 0 2000 1200" xmlns="http://www.w3.org/2000/svg">
<path d="M0 0L2000 0L2000 0L2000 1200L2000 1200L0 1200L0 1200L0 0L0 0Z" fill="#750787" fill-rule="evenodd"/>
<path d="M0 0L2000 0L2000 0L2000 1000L2000 1000L0 1000L0 1000L0 0L0 0Z" fill="#004dff" fill-rule="evenodd"/>
<path d="M0 0L2000 0L2000 0L2000 800L2000 800L0 800L0 800L0 0L0 0Z" fill="#008026" fill-rule="evenodd"/>
<path d="M0 0L2000 0L2000 0L2000 600L2000 600L0 600L0 600L0 0L0 0Z" fill="#ffed00" fill-rule="evenodd"/>
<path d="M0 0L2000 0L2000 0L2000 400L2000 400L0 400L0 400L0 0L0 0Z" fill="#ff8c00" fill-rule="evenodd"/>
<path d="M0 0L2000 0L2000 0L2000 200L2000 200L0 200L0 200L0 0L0 0Z" fill="#e40303" fill-rule="evenodd"/>
</svg>