<svg viewBox="0 0 2000 1200" xmlns="http://www.w3.org/2000/svg">
<path d="M-0.666722 0L1999 0L1999 0L1999 1200L1999 1200L-0.666722 1200L-0.666722 1200L-0.666722 0L-0.666722 0Z" fill="#750787" fill-rule="evenodd"/>
<path d="M-0.666722 0L1999 0L1999 0L1999 1000L1999 1000L-0.666722 1000L-0.666722 1000L-0.666722 0L-0.666722 0Z" fill="#004dff" fill-rule="evenodd"/>
<path d="M-0.666722 0L1999 0L1999 0L1999 800L1999 800L-0.666722 800L-0.666722 800L-0.666722 0L-0.666722 0Z" fill="#008026" fill-rule="evenodd"/>
<path d="M-0.666722 0L1999 0L1999 0L1999 600L1999 600L-0.666722 600L-0.666722 600L-0.666722 0L-0.666722 0Z" fill="#ffed00" fill-rule="evenodd"/>
<path d="M-0.666722 0L1999 0L1999 0L1999 400L1999 400L-0.666722 400L-0.666722 400L-0.666722 0L-0.666722 0Z" fill="#ff8c00" fill-rule="evenodd"/>
<path d="M-0.666722 0L1999 0L1999 0L1999 200L1999 200L-0.666722 200L-0.666722 200L-0.666722 0L-0.666722 0Z" fill="#e40303" fill-rule="evenodd"/>
<path d="M-1 302.362L315.947 600L-1 897.638L-1 302.362Z" fill="#ffffff" fill-rule="evenodd"/>
<path d="M-1 302.362L-1 151.181L472.588 600L-1 1048.82L-1 897.638L315.947 600L-1 302.362Z" fill="#ffafc8" fill-rule="evenodd"/>
<path d="M-1 151.181L-1 0L636.56 600L-1 1200L-1 1048.82L472.588 600L-1 151.181Z" fill="#74d7ee" fill-rule="evenodd"/>
<path d="M-1 0L636.56 600L-1 1200L159.307 1200L793.868 600L159.307 0L-1 0Z" fill="#613915" fill-rule="evenodd"/>
<path d="M159.307 0L319.28 0L953.841 600L319.28 1200L159.307 1200L793.868 600L159.307 0Z" fill="#000000" fill-rule="evenodd"/>
</svg>