<svg viewBox="0 0 2000 1200" xmlns="http://www.w3.org/2000/svg">
<path d="M0 0L2000 0L2000 0L2000 1200L2000 1200L0 1200L0 1200L0 0L0 0Z" fill="#a30262" fill-rule="evenodd"/>
<path d="M0 0L2000 0L2000 0L2000 960L2000 960L0 960L0 960L0 0L0 0Z" fill="#d362a4" fill-rule="evenodd"/>
<path d="M0 0L2000 0L2000 0L2000 720L2000 720L0 720L0 720L0 0L0 0Z" fill="#ffffff" fill-rule="evenodd"/>
<path d="M0 0L2000 0L2000 0L2000 480L2000 480L0 480L0 480L0 0L0 0Z" fill="#ff9a56" fill-rule="evenodd"/>
<path d="M0 0L2000 0L2000 0L2000 240L2000 240L0 240L0 240L0 0L0 0Z" fill="#d52d00" fill-rule="evenodd"/>
</svg>